<svg width="50" height="50" viewBox="0 0 50 50" fill="none" xmlns="http://www.w3.org/2000/svg">
<circle cx="25" cy="25" r="24.5" stroke="#D1D1D1"/>
<path d="M25 35L24.6464 35.3536L25 35.7071L25.3536 35.3536L25 35ZM25.5 16.25C25.5 15.9739 25.2761 15.75 25 15.75C24.7239 15.75 24.5 15.9739 24.5 16.25L25.5 16.25ZM17.1464 27.8536L24.6464 35.3536L25.3536 34.6464L17.8536 27.1464L17.1464 27.8536ZM25.3536 35.3536L32.8536 27.8536L32.1464 27.1464L24.6464 34.6464L25.3536 35.3536ZM25.5 35L25.5 16.25L24.5 16.25L24.5 35L25.5 35Z" fill="white"/>
</svg>
