<svg width="50" height="50" viewBox="0 0 50 50" fill="none" xmlns="http://www.w3.org/2000/svg">
<circle cx="25" cy="25" r="24.5" transform="rotate(-90 25 25)" stroke="#D1D1D1"/>
<path d="M35 25L35.3536 25.3536L35.7071 25L35.3536 24.6464L35 25ZM16.25 24.5C15.9739 24.5 15.75 24.7239 15.75 25C15.75 25.2761 15.9739 25.5 16.25 25.5L16.25 24.5ZM27.8536 32.8536L35.3536 25.3536L34.6464 24.6464L27.1464 32.1464L27.8536 32.8536ZM35.3536 24.6464L27.8536 17.1464L27.1464 17.8536L34.6464 25.3536L35.3536 24.6464ZM35 24.5L16.25 24.5L16.25 25.5L35 25.5L35 24.5Z" fill="white"/>
</svg>
