<svg width="45" height="45" viewBox="0 0 45 45" fill="none" xmlns="http://www.w3.org/2000/svg">
<path d="M22.5 39.375C20.2839 39.375 18.0896 38.9385 16.0422 38.0905C13.9948 37.2424 12.1346 35.9994 10.5676 34.4324C9.00058 32.8654 7.75758 31.0052 6.90953 28.9578C6.06148 26.9104 5.625 24.7161 5.625 22.5C5.625 20.2839 6.06149 18.0896 6.90953 16.0422C7.75758 13.9948 9.00059 12.1346 10.5676 10.5676C12.1346 9.00058 13.9949 7.75758 16.0422 6.90953C18.0896 6.06148 20.2839 5.625 22.5 5.625C24.7161 5.625 26.9104 6.06149 28.9578 6.90953C31.0052 7.75758 32.8654 9.00059 34.4324 10.5676C35.9994 12.1346 37.2424 13.9949 38.0905 16.0422C38.9385 18.0896 39.375 20.2839 39.375 22.5C39.375 24.7161 38.9385 26.9104 38.0905 28.9578C37.2424 31.0052 35.9994 32.8654 34.4324 34.4324C32.8654 35.9994 31.0051 37.2424 28.9578 38.0905C26.9104 38.9385 24.7161 39.375 22.5 39.375L22.5 39.375Z" stroke="#4E4E4E" stroke-linecap="round"/>
<path d="M16.875 16.875L28.125 28.125" stroke="#4E4E4E" stroke-linecap="round"/>
<path d="M28.125 16.875L16.875 28.125" stroke="#4E4E4E" stroke-linecap="round"/>
</svg>
